# xmcd
#
# Track frame offsets: 
#        150
#        7143
#        38269
#        46658
#        60296
#        68489
#        75012
#        97145
#        112777
#        129086
#        136843
#        143183
#        173586
#        191842
#        201670
#        205871
#        212212
#        236256
#        250414
#        264167
#        270344
#        275836
#        305184
#        314927
#        328206
#
# Disc length: 4475 seconds
#
# Revision: 0
# Processed by: cddbd v1.5.2PL0 Copyright (c) Steve Scherf et al.
# Submitted via: ExactAudioCopy v1.0b1
#
DISCID=64117919
DTITLE=Hank Williams - The Complete Mothers Best Recordings CD8
DYEAR=2010
DGENRE=Country
TTITLE0=Introduction
TTITLE1=Pictures from Life’s Other Side (with extra verse)
TTITLE2=Jerry Rivers and the Drifting Cowboys: Sally Goodin
TTITLE3=I’m Gonna Sing
TTITLE4=Closing
TTITLE5=Introduction
TTITLE6=Just Waitin’
TTITLE7=Don Helms and the Drifting Cowboys: Paradise Isle
TTITLE8=When the Fire Comes down from Heaven
TTITLE9=Closing
TTITLE10=Introduction
TTITLE11=My Sweet Love Ain’t Around
TTITLE12=Jimmie Skinner and the Drifting Cowboys: I Can’t Tell My Heart 
TTITLE12=That
TTITLE13=Where the Soul of Man Never Dies
TTITLE14=Closing
TTITLE15=Introduction
TTITLE16=I Can’t Help It (If I’m Still in Love with You)
TTITLE17=Don Helms and the Drifting Cowboys: Panhandle Rag
TTITLE18=Drifting Too Far from the Shore
TTITLE19=Closing
TTITLE20=Introduction
TTITLE21=Just When I Needed You
TTITLE22=Don Helms and the Drifting Cowboys: Steel Guitar Stomp
TTITLE23=I’ll Fly Away
TTITLE24=Closing
EXTD=
EXTT0=
EXTT1=
EXTT2=
EXTT3=
EXTT4=
EXTT5=
EXTT6=
EXTT7=
EXTT8=
EXTT9=
EXTT10=
EXTT11=
EXTT12=
EXTT13=
EXTT14=
EXTT15=
EXTT16=
EXTT17=
EXTT18=
EXTT19=
EXTT20=
EXTT21=
EXTT22=
EXTT23=
EXTT24=
PLAYORDER=
